<svg version="1.1" id="Layer_1" xmlns="http://www.w3.org/2000/svg" xmlns:xlink="http://www.w3.org/1999/xlink" x="0px" y="0px"
	 width="100%" viewBox="-206.6 0 1213.02 1024" enable-background="new 0 0 1024 1024" xml:space="preserve">
<path fill="#FEF8F3" opacity="1.000000" stroke="none" 
	d="
M707.013367,418.220703 
	C707.012878,426.861694 707.012451,435.502686 707.013977,445.076324 
	C707.022461,466.676910 707.028870,487.344879 707.021179,508.474335 
	C706.616333,513.045105 706.225708,517.154358 705.490112,521.175171 
	C702.023499,520.583801 699.440063,516.271362 695.538330,519.863037 
	C695.044983,520.139465 694.823181,520.367126 694.322144,520.808533 
	C692.120239,520.940369 690.088989,521.373901 688.422241,520.781677 
	C685.573853,519.769653 682.953735,518.114746 680.043457,516.516296 
	C679.311768,516.109375 678.774353,515.916077 678.043457,515.507080 
	C677.303345,515.114502 676.756836,514.937683 676.022095,514.538940 
	C675.287537,514.135864 674.741150,513.954895 673.994141,513.549438 
	C673.210754,513.201111 672.627930,513.077271 671.892578,512.648193 
	C668.444946,510.469421 665.309631,508.171478 661.805847,506.852142 
	C658.830261,505.731659 655.436462,505.484528 652.212830,505.396820 
	C651.170837,505.368500 649.420349,506.936371 649.200623,508.018921 
	C648.982178,509.095490 649.951416,511.011993 650.968323,511.640503 
	C656.433105,515.018127 662.075195,518.108887 667.813477,521.567932 
	C668.870483,522.321472 669.769958,522.805847 670.822998,523.551147 
	C671.654663,524.204407 672.332947,524.596802 673.147705,525.249512 
	C673.529602,526.013855 673.774963,526.517883 673.698059,527.178467 
	C672.131775,527.769348 670.887817,528.203735 669.438538,528.756836 
	C668.965881,529.055420 668.748169,529.282776 668.282349,529.743286 
	C667.751221,532.376587 667.434082,534.820618 667.322998,537.273926 
	C667.274536,538.344543 668.188538,539.816895 667.739441,540.451050 
	C665.426208,543.717407 666.163513,546.626953 668.064941,549.686157 
	C668.490173,550.370361 668.664856,551.697205 668.284302,552.315308 
	C666.002869,556.020691 668.316223,558.512573 670.719971,560.451599 
	C677.943970,566.278931 685.408752,571.739502 694.623291,574.250549 
	C698.917297,575.420776 703.044006,577.205139 707.174805,579.193115 
	C707.065002,597.186279 707.009216,614.697388 706.993774,632.208496 
	C706.976562,651.799988 706.995911,671.391418 706.971558,691.447266 
	C707.010254,695.946594 707.076782,699.981628 707.070435,704.478149 
	C707.080811,710.284119 707.164062,715.628601 707.151733,721.434570 
	C707.035339,769.604248 707.014526,817.312378 706.993774,865.020508 
	C706.993713,880.468384 706.993713,895.916199 706.993713,911.595703 
	C716.589294,912.780151 725.690125,913.363098 734.542603,915.165588 
	C741.743347,916.631897 748.869202,919.054016 755.602417,922.019348 
	C759.999268,923.955688 759.873108,927.671814 755.377258,929.583374 
	C749.709656,931.993164 743.621826,934.000610 737.540894,934.731812 
	C724.404175,936.311401 711.169128,937.207153 697.949280,937.913696 
	C689.394043,938.370972 680.794373,937.997681 672.214661,937.997620 
	C625.971313,937.997375 579.727966,937.997620 533.484619,937.997620 
	C511.071625,937.997620 488.658600,937.997437 466.245605,937.997498 
	C456.165253,937.997498 446.082764,938.125916 436.005127,937.961121 
	C426.124054,937.799561 416.249023,937.136780 406.369110,937.079407 
	C399.325806,937.038452 392.280670,937.807190 385.232788,937.882446 
	C381.113556,937.926453 376.983032,937.004883 372.865021,937.061035 
	C360.406281,937.230774 347.951965,937.879028 335.494354,937.926147 
	C326.457306,937.960388 317.416718,937.041931 308.379669,937.075867 
	C295.922363,937.122620 283.467743,937.879028 271.010406,937.926697 
	C261.974915,937.961243 252.936218,937.059570 243.900192,937.081665 
	C232.943115,937.108521 221.988983,937.752014 211.030441,937.968750 
	C203.453369,938.118652 195.868927,938.109497 188.291351,937.973083 
	C174.753143,937.729492 161.219147,937.227356 147.680542,937.038635 
	C136.102264,936.877197 124.519981,937.002686 112.939468,937.002258 
	C95.026932,937.001648 77.114105,936.947205 59.202099,937.044556 
	C55.243530,937.066040 51.275791,937.519592 47.333920,937.965515 
	C42.229313,938.542969 41.068020,937.622864 41.001957,932.509766 
	C40.991192,931.676636 41.000340,930.843262 41.000340,930.010010 
	C41.000359,638.199768 40.998299,346.389496 41.010948,54.579231 
	C41.011314,46.129379 40.077747,47.011349 48.388741,47.008400 
	C102.051163,46.989376 155.713577,46.998817 209.376007,46.998848 
	C372.945221,46.998947 536.514404,46.998917 700.083618,46.999458 
	C706.997864,46.999481 706.999695,47.001888 706.999756,54.051067 
	C707.000122,153.876495 707.000549,253.701935 706.996094,353.527374 
	C706.996033,355.526184 706.937378,357.524963 706.455688,359.901398 
	C697.716248,359.290161 689.431580,358.259216 681.130432,357.383972 
	C680.381897,357.305023 679.527405,358.230865 678.415527,358.862305 
	C676.331543,360.283295 674.554138,361.532043 672.551025,362.869080 
	C672.034973,363.120026 671.806396,363.345520 671.352478,363.789307 
	C668.683228,366.943085 669.423584,369.577728 672.087646,372.233887 
	C672.444763,372.649109 672.717285,372.828644 673.089050,373.238800 
	C673.472595,373.632233 673.756897,373.795074 674.218506,374.230316 
	C675.832153,375.369415 677.268616,376.236084 678.893982,377.216766 
	C677.987732,377.856079 677.361694,378.297729 676.521606,378.849731 
	C676.036865,379.151123 675.837097,379.399292 675.476501,380.028015 
	C673.956787,385.977386 676.817200,389.214478 681.749512,391.633728 
	C683.465881,393.091339 685.014099,394.270538 686.699097,395.644409 
	C687.044434,396.092865 687.302368,396.278015 687.750122,396.587280 
	C688.107117,397.020721 688.361267,397.211151 688.780884,397.555481 
	C689.129028,397.999298 689.387634,398.186096 689.825073,398.621521 
	C691.841003,400.445496 693.716309,401.967926 695.669434,403.811188 
	C695.422729,406.154358 695.098083,408.176727 694.827209,410.483521 
	C695.239868,411.194336 695.598755,411.620758 696.030762,412.289124 
	C696.379883,412.707672 696.655945,412.884308 697.012695,413.301575 
	C697.373169,413.714935 697.652893,413.887695 698.025024,414.299164 
	C698.412170,414.691132 698.706970,414.844360 699.193848,415.292206 
	C701.928345,416.464783 704.470886,417.342743 707.013367,418.220703 
z"/>
<path fill="#F8EBDF" opacity="1.000000" stroke="none" 
	d="
M808.976624,253.967072 
	C809.942383,250.314743 810.908203,246.662415 811.832214,243.168091 
	C798.269775,235.192886 787.845337,224.449265 779.573364,211.307571 
	C769.950623,196.020096 782.288208,173.858582 796.711975,170.090088 
	C801.330994,168.883286 806.378967,169.318100 811.629639,169.497559 
	C812.018494,174.763733 811.663086,179.565491 812.091980,184.296127 
	C812.553955,189.391937 812.915588,194.786514 817.992249,198.332245 
	C818.303650,199.312927 818.615540,199.968384 818.927368,200.623840 
	C819.214539,200.429291 819.501770,200.234726 819.788940,200.040161 
	C819.194702,199.358612 818.600464,198.677063 817.963623,197.625153 
	C809.346130,179.658859 815.002625,159.969040 828.062988,147.580719 
	C839.241394,136.977509 852.914551,134.601440 867.761902,137.385773 
	C877.748413,139.258560 885.034485,144.662491 889.746582,153.625854 
	C890.113403,154.323563 890.652405,154.930756 891.111389,155.580017 
	C891.481384,155.383133 891.851440,155.186249 892.221497,154.989365 
	C891.493958,153.313477 890.766418,151.637589 890.038940,149.961700 
	C896.267090,147.932053 902.397583,145.496170 908.746704,143.969635 
	C917.869934,141.776093 925.980408,145.369446 933.405884,150.149292 
	C936.619568,152.218002 938.987244,155.601196 941.616821,158.904907 
	C943.502258,165.628952 945.955261,171.737091 947.355225,178.077728 
	C948.230225,182.040665 947.518005,186.354019 947.518005,190.666382 
	C958.651306,185.248779 969.471863,183.689774 980.741455,189.283936 
	C988.192688,192.982697 993.153503,198.695023 997.582031,205.650604 
	C1008.088440,222.152100 1005.452637,250.597504 991.325806,262.256287 
	C990.426758,262.998322 989.857605,264.139954 989.134949,265.095703 
	C989.345215,265.327972 989.555481,265.560272 989.765686,265.792542 
	C990.831909,265.188934 991.898071,264.585297 992.964233,263.981689 
	C993.596069,265.103149 993.999390,266.467957 994.894836,267.308777 
	C1004.849060,276.656158 1004.248962,289.382538 999.735352,300.399719 
	C991.365784,320.828827 970.271240,326.052673 951.548340,319.237091 
	C949.680725,318.557281 947.829895,317.814941 946.021729,316.991028 
	C936.450684,312.629791 936.456299,312.617523 928.726318,320.717102 
	C923.955078,317.870544 919.880493,314.466431 915.392700,311.743317 
	C899.676025,302.206696 883.838928,292.867462 868.002869,283.529053 
	C859.728516,278.649689 851.576538,273.492249 842.981689,269.244690 
	C831.848938,263.742828 820.329529,259.023376 808.976624,253.967072 
M831.689392,232.568039 
	C832.690002,233.041336 833.688660,233.923187 834.691528,233.927948 
	C857.581055,234.036407 877.126709,243.481857 895.416748,256.012878 
	C903.314880,261.424133 910.869690,267.437378 918.036926,273.790375 
	C928.098999,282.709381 936.882324,292.632294 937.156433,307.282196 
	C937.164368,307.704681 937.800232,308.115356 938.482666,308.943237 
	C938.733582,307.690491 938.933350,307.064301 938.975586,306.427643 
	C939.696289,295.566589 934.280762,287.256348 927.304443,279.908417 
	C914.681030,266.612671 900.503357,255.129532 884.392944,246.312042 
	C868.238403,237.470383 851.424744,230.544022 831.689392,232.568039 
M826.833496,213.012070 
	C825.251404,213.840866 823.669312,214.669678 822.087219,215.498474 
	C822.230530,215.668961 822.373840,215.839447 822.517151,216.009933 
	C828.172852,215.483582 833.828552,214.957245 839.484192,214.430893 
	C839.446350,213.754761 839.408508,213.078629 839.370667,212.402481 
	C835.462463,212.573456 831.554260,212.744415 826.833496,213.012070 
z"/>
<path fill="#B14634" opacity="1.000000" stroke="none" 
	d="
M918.815430,341.305817 
	C919.771240,364.931732 914.439209,387.134064 904.623169,408.576660 
	C902.246887,413.767639 902.150146,420.189423 901.810730,426.091614 
	C900.653809,446.208679 900.492493,466.401276 898.763672,486.462677 
	C896.520081,512.498230 893.050110,538.426331 890.278320,564.418823 
	C888.504761,581.050232 880.027222,593.288086 865.737610,602.585327 
	C863.946411,602.868347 862.746277,602.868347 862.497314,602.868347 
	C865.016418,597.863403 867.586365,592.757507 870.000305,587.961548 
	C866.480042,587.961548 863.674805,587.203186 861.559570,588.090149 
	C851.331726,592.378967 840.638245,593.068176 829.816528,592.709900 
	C834.674194,585.663635 840.774475,579.551147 844.111328,572.186523 
	C855.079895,547.977600 855.712280,521.971741 855.452698,495.547516 
	C855.375854,492.781982 855.174316,490.407654 855.264771,487.750427 
	C855.699036,486.327850 855.962280,485.188477 855.965149,484.048462 
	C855.995850,471.655487 855.985779,459.262390 855.986755,446.869324 
	C855.986938,444.434204 855.986755,441.999084 855.986755,440.256226 
	C847.207031,439.788086 839.142334,439.358063 830.805786,438.677979 
	C826.985046,437.569336 823.436035,436.710754 819.687134,435.600891 
	C817.380371,432.929443 815.273621,430.509277 813.607910,428.093781 
	C816.844849,427.863068 819.759094,428.054657 822.415955,427.317902 
	C833.534607,424.234680 844.788879,421.435547 855.551758,417.364441 
	C860.564514,415.468323 864.497009,410.804626 869.062988,407.600250 
	C871.189331,406.108002 873.658020,405.103546 876.341675,403.859039 
	C877.718628,403.286072 878.677185,402.377808 879.739685,402.233154 
	C889.673828,400.880676 893.652588,392.894745 898.006042,385.589752 
	C899.968567,382.296692 899.709900,378.510681 896.276672,375.739258 
	C892.761780,372.901947 889.786682,374.889191 886.816223,376.840118 
	C883.528809,378.999268 880.239563,381.155640 876.669556,383.115601 
	C861.818726,370.897430 858.138672,353.780640 854.667664,336.533539 
	C853.797485,340.691406 852.927246,344.849304 851.768860,350.384125 
	C841.661987,336.657776 835.846375,323.158356 835.277466,307.840790 
	C860.737244,322.439972 885.841492,336.935303 911.244629,351.603180 
	C913.551086,348.466095 916.183289,344.885956 918.815430,341.305817 
z"/>
<path fill="#F6E5D6" opacity="1.000000" stroke="none" 
	d="
M829.793579,593.070190 
	C840.638245,593.068176 851.331726,592.378967 861.559570,588.090149 
	C863.674805,587.203186 866.480042,587.961548 870.000305,587.961548 
	C867.586365,592.757507 865.016418,597.863403 862.497314,602.868347 
	C862.746277,602.868347 863.946411,602.868347 865.521423,602.835571 
	C865.915161,615.499939 863.953796,627.916809 859.831726,639.892883 
	C854.333496,655.867126 837.937195,663.045471 822.268860,656.632568 
	C817.079590,654.508545 811.947388,652.244934 806.365723,649.692627 
	C805.615173,648.779846 805.427002,647.946777 804.940735,647.699097 
	C788.601257,639.378479 772.170044,631.235840 755.893311,622.795227 
	C746.096375,617.714722 735.828186,613.099060 729.788513,602.567566 
	C727.699402,597.758484 724.589539,593.390564 724.036011,588.719666 
	C722.598511,576.590149 731.495850,566.277466 745.432495,562.998779 
	C751.342041,561.353821 756.695068,561.844849 762.285400,564.148315 
	C771.083191,567.697021 779.646790,570.858032 787.960754,574.577332 
	C794.141541,577.342468 799.998718,580.831177 806.208496,584.279114 
	C809.876831,586.065369 813.270691,587.753601 816.813599,589.027405 
	C821.074036,590.559204 825.461243,591.738342 829.793579,593.070190 
z"/>
<path fill="#EDDCCD" opacity="1.000000" stroke="none" 
	d="
M729.932434,602.870728 
	C735.828186,613.099060 746.096375,617.714722 755.893311,622.795227 
	C772.170044,631.235840 788.601257,639.378479 804.940735,647.699097 
	C805.427002,647.946777 805.615173,648.779846 805.995544,649.703491 
	C805.075989,653.709900 804.258301,657.402893 803.103577,660.987244 
	C798.178162,676.276733 793.187988,691.545654 788.122131,706.789124 
	C787.456665,708.791626 786.217712,710.603577 784.665344,712.789795 
	C779.965332,713.129028 775.577820,714.133667 771.770813,713.066772 
	C757.275452,709.004272 742.899414,704.477051 728.617554,699.707825 
	C721.260681,697.251160 714.195984,693.919312 706.999268,690.982910 
	C706.995911,671.391418 706.976562,651.799988 706.993774,632.208496 
	C707.009216,614.697388 707.065002,597.186279 707.520386,579.285645 
	C710.453735,579.889160 712.969666,580.882202 715.427917,582.351440 
	C713.762695,595.802002 717.164978,600.484802 729.932434,602.870728 
M736.833191,642.310303 
	C737.460144,641.164795 738.728760,639.929138 738.583008,638.892273 
	C738.261108,636.602051 737.714294,633.996033 736.299316,632.338013 
	C735.460510,631.355042 732.048157,631.121216 731.110291,631.983398 
	C729.376709,633.577148 727.709045,636.194458 727.635620,638.438477 
	C727.494812,642.739197 731.406372,644.464905 736.833191,642.310303 
z"/>
<path fill="#644542" opacity="1.000000" stroke="none" 
	d="
M706.971558,691.447266 
	C714.195984,693.919312 721.260681,697.251160 728.617554,699.707825 
	C742.899414,704.477051 757.275452,709.004272 771.770813,713.066772 
	C775.577820,714.133667 779.965332,713.129028 784.495972,713.107910 
	C785.099365,722.838501 782.961853,732.202271 778.477661,740.592102 
	C759.210632,776.640564 742.927673,814.331970 719.671570,848.192627 
	C715.812012,853.812012 711.622253,859.204529 707.289429,864.861206 
	C707.014526,817.312378 707.035339,769.604248 707.514404,721.324951 
	C708.530212,718.001709 709.087708,715.249512 709.776611,711.848694 
	C712.372559,713.873108 714.536377,715.834412 716.966614,717.375610 
	C719.216736,718.802490 721.751831,719.780029 724.161377,720.955444 
	C724.315002,720.606445 724.468628,720.257507 724.622192,719.908569 
	C718.795898,714.611267 712.969543,709.313965 707.143250,704.016663 
	C707.076782,699.981628 707.010254,695.946594 706.971558,691.447266 
z"/>
<path fill="#E3D4CB" opacity="1.000000" stroke="none" 
	d="
M918.974060,340.973572 
	C916.183289,344.885956 913.551086,348.466095 911.244629,351.603180 
	C885.841492,336.935303 860.737244,322.439972 835.073181,307.604309 
	C833.464844,307.120483 832.416260,306.976959 831.242065,306.506470 
	C825.417847,303.071350 819.719238,299.963196 813.856079,296.559082 
	C810.080505,294.494720 806.469543,292.726288 802.693726,290.670746 
	C799.195557,288.429993 795.862183,286.476379 792.655701,284.597076 
	C793.890869,281.037903 794.947815,277.992401 796.004700,274.946869 
	C796.004700,274.946869 796.022705,275.016449 796.122864,274.898804 
	C796.429016,274.641968 796.631287,274.497620 796.829956,274.348175 
	C800.679565,267.664612 804.529175,260.981049 808.677734,254.132294 
	C820.329529,259.023376 831.848938,263.742828 842.981689,269.244690 
	C851.576538,273.492249 859.728516,278.649689 868.002869,283.529053 
	C883.838928,292.867462 899.676025,302.206696 915.392700,311.743317 
	C919.880493,314.466431 923.955078,317.870544 928.561401,321.017761 
	C928.497925,323.329376 928.639282,325.893646 927.577026,327.780243 
	C925.066772,332.238708 921.983948,336.374847 918.974060,340.973572 
z"/>
<path fill="#B14634" opacity="1.000000" stroke="none" 
	d="
M795.679016,275.041382 
	C794.947815,277.992401 793.890869,281.037903 792.655701,284.597076 
	C795.862183,286.476379 799.195557,288.429993 802.385376,290.798706 
	C790.694397,297.195221 785.326782,307.947021 779.878723,318.994202 
	C775.157471,328.567444 775.052063,340.008057 764.619202,347.502289 
	C756.367676,353.429626 755.468994,371.595184 760.007812,380.423950 
	C758.309753,386.980591 759.338257,392.888580 760.917725,398.930298 
	C763.938599,410.485657 768.948975,421.810089 766.038879,434.608154 
	C765.409668,436.498169 764.662537,437.986084 764.182373,439.555573 
	C762.065308,446.475708 760.025208,453.419403 757.743408,460.638916 
	C757.018066,463.334534 756.506531,465.745697 755.912048,468.552429 
	C750.373962,497.039154 753.526306,524.346069 764.635864,550.927917 
	C763.946228,551.371033 763.256592,551.814148 762.566956,552.257324 
	C757.010559,548.633118 751.454163,545.008850 745.834290,541.343262 
	C745.183167,542.457642 744.509094,543.611267 743.556335,545.241882 
	C737.304810,537.320251 732.695435,529.040710 732.321960,519.538940 
	C731.847473,507.468170 732.745239,495.343445 733.007935,482.895020 
	C733.641174,478.036743 734.317810,473.525452 735.113892,468.634552 
	C736.941467,457.621735 738.649597,446.988495 740.357788,436.355255 
	C740.357788,436.355255 740.350647,436.285614 740.587158,436.040344 
	C740.860107,435.194061 740.896606,434.593109 740.933105,433.992126 
	C743.185547,414.502502 746.732056,395.053101 747.339844,375.512329 
	C747.996338,354.407043 755.671326,336.062256 764.696899,317.860565 
	C772.573914,301.975159 782.155640,287.239166 795.679016,275.041382 
z"/>
<path fill="#EDDCCD" opacity="1.000000" stroke="none" 
	d="
M739.954590,436.268433 
	C738.649597,446.988495 736.941467,457.621735 734.772400,468.740479 
	C730.175903,470.157166 728.070557,472.707611 727.130432,476.897644 
	C726.275452,480.708405 724.532227,484.319916 722.818359,488.043610 
	C716.991394,490.103088 716.909668,495.513977 715.234253,499.839874 
	C713.673035,503.871094 711.955505,507.473572 707.035339,508.012817 
	C707.028870,487.344879 707.022461,466.676910 707.022095,445.550720 
	C716.905762,442.305450 726.781494,439.511810 736.663818,436.742218 
	C737.604797,436.478516 738.587891,436.364868 739.954590,436.268433 
z"/>
<path fill="#E3D4CB" opacity="1.000000" stroke="none" 
	d="
M993.257568,263.815918 
	C991.898071,264.585297 990.831909,265.188934 989.765686,265.792542 
	C989.555481,265.560272 989.345215,265.327972 989.134949,265.095703 
	C989.857605,264.139954 990.426758,262.998322 991.325806,262.256287 
	C1005.452637,250.597504 1008.088440,222.152100 997.582031,205.650604 
	C993.153503,198.695023 988.192688,192.982697 980.741455,189.283936 
	C969.471863,183.689774 958.651306,185.248779 947.518005,190.666382 
	C947.518005,186.354019 948.230225,182.040665 947.355225,178.077728 
	C945.955261,171.737091 943.502258,165.628952 941.741211,159.221039 
	C948.571960,166.988647 950.148499,176.515930 950.172119,186.475266 
	C954.344482,185.603424 958.141968,184.477615 962.016174,184.054565 
	C986.288330,181.404099 1000.758789,200.361984 1004.814148,217.739212 
	C1008.765808,234.672272 1005.553345,250.371170 993.257568,263.815918 
z"/>
<path fill="#E3D4CB" opacity="1.000000" stroke="none" 
	d="
M889.886963,149.661484 
	C890.766418,151.637589 891.493958,153.313477 892.221497,154.989365 
	C891.851440,155.186249 891.481384,155.383133 891.111389,155.580017 
	C890.652405,154.930756 890.113403,154.323563 889.746582,153.625854 
	C885.034485,144.662491 877.748413,139.258560 867.761902,137.385773 
	C852.914551,134.601440 839.241394,136.977509 828.062988,147.580719 
	C815.002625,159.969040 809.346130,179.658859 817.960571,197.627502 
	C818.000000,198.000198 817.992676,198.007004 817.992676,198.007004 
	C812.915588,194.786514 812.553955,189.391937 812.091980,184.296127 
	C811.663086,179.565491 812.018494,174.763733 812.045959,169.533249 
	C816.008179,160.105423 820.257812,151.427414 827.775635,144.657272 
	C843.531555,130.468231 873.264465,130.179733 886.801819,145.367218 
	C887.895996,146.594742 888.762634,148.025131 889.886963,149.661484 
z"/>
<path fill="#EE9778" opacity="1.000000" stroke="none" 
	d="
M678.722107,358.690094 
	C679.527405,358.230865 680.381897,357.305023 681.130432,357.383972 
	C689.431580,358.259216 697.716248,359.290161 706.398071,360.399719 
	C708.843323,361.365967 710.895874,362.211548 713.062744,363.426208 
	C713.177124,363.795319 712.981445,364.025085 712.582520,364.013184 
	C701.127991,362.339783 690.072388,360.678314 678.942261,358.935913 
	C678.867737,358.854980 678.722107,358.690094 678.722107,358.690094 
z"/>
<path fill="#EE9778" opacity="1.000000" stroke="none" 
	d="
M694.773376,410.199066 
	C695.098083,408.176727 695.422729,406.154358 695.775635,403.683868 
	C695.803894,403.235718 696.017883,402.982391 696.346924,403.128540 
	C703.757568,406.925110 707.275208,406.833832 710.610657,402.858124 
	C713.796570,399.060669 711.663452,396.104919 708.090820,392.971069 
	C711.006592,392.971069 712.992737,392.971069 715.024048,393.017426 
	C715.069275,393.063782 715.162720,393.153412 715.162720,393.153442 
	C714.950684,393.405396 714.630554,393.624573 714.542725,393.914185 
	C713.029663,398.903595 711.545349,403.901703 710.106323,409.360901 
	C710.157959,409.823883 709.995117,410.002960 709.661133,409.860840 
	C706.255676,408.778259 703.138611,407.962524 700.125061,406.863129 
	C696.951416,405.705292 695.559814,407.050140 694.958130,410.040649 
	C694.896667,410.093597 694.773376,410.199066 694.773376,410.199066 
z"/>
<path fill="#EE9778" opacity="1.000000" stroke="none" 
	d="
M713.274536,363.680115 
	C716.579773,366.660126 717.661377,374.182465 715.624451,378.504944 
	C714.969177,379.895569 714.611023,381.426208 714.157593,383.345215 
	C714.198364,383.797638 713.993713,384.005981 713.682678,383.872131 
	C711.715698,382.461334 710.059753,381.184387 708.403809,379.907410 
	C714.156372,379.852875 715.465271,376.855438 714.924988,372.588623 
	C714.559021,369.698425 713.648438,366.877167 712.981445,364.025085 
	C712.981445,364.025085 713.177124,363.795319 713.274536,363.680115 
z"/>
<path fill="#EE9778" opacity="1.000000" stroke="none" 
	d="
M707.365723,418.118469 
	C704.470886,417.342743 701.928345,416.464783 699.200378,415.282898 
	C699.014893,414.978973 699.028259,414.960022 699.411255,414.979645 
	C709.087036,417.386444 709.827393,417.023834 709.995117,410.002960 
	C709.995117,410.002960 710.157959,409.823883 710.238647,409.731262 
	C713.527893,413.696686 711.490906,416.125977 707.365723,418.118469 
z"/>
<path fill="#EE9778" opacity="1.000000" stroke="none" 
	d="
M716.212769,385.788147 
	C716.382263,387.788788 716.551758,389.789398 716.395142,391.932312 
	C716.069092,392.074615 715.971497,391.978943 715.978760,391.553284 
	C715.984070,389.423279 715.982117,387.718933 716.038391,385.958069 
	C716.096619,385.901550 716.212708,385.788147 716.212769,385.788147 
z"/>
<path fill="#EDDCCD" opacity="1.000000" stroke="none" 
	d="
M740.695312,434.202789 
	C740.896606,434.593109 740.860107,435.194061 740.604492,436.009918 
	C740.409424,435.621002 740.433411,435.017242 740.695312,434.202789 
z"/>
<path fill="#B14634" opacity="1.000000" stroke="none" 
	d="
M796.638855,274.391724 
	C796.631287,274.497620 796.429016,274.641968 796.089417,274.911926 
	C796.078064,274.806366 796.242004,274.603912 796.638855,274.391724 
z"/>
<path fill="#EE9778" opacity="1.000000" stroke="none" 
	d="
M715.413635,384.592773 
	C715.719543,384.754608 715.936829,384.996124 716.139099,385.552765 
	C716.212708,385.788147 716.096619,385.901550 715.820923,385.848083 
	C715.275330,385.591705 715.091858,385.328552 715.099854,384.902405 
	C715.204895,384.799652 715.413635,384.592773 715.413635,384.592773 
z"/>
<path fill="#EE9778" opacity="1.000000" stroke="none" 
	d="
M714.301270,383.694031 
	C714.690063,383.744720 714.936096,383.947449 715.277954,384.395660 
	C715.413635,384.592773 715.204895,384.799652 714.879639,384.795563 
	C714.279785,384.592285 714.092834,384.330444 713.993713,384.005981 
	C713.993713,384.005981 714.198364,383.797638 714.301270,383.694031 
z"/>
<path fill="#EE9778" opacity="1.000000" stroke="none" 
	d="
M716.116455,392.123871 
	C716.082886,392.507935 715.900330,392.772614 715.389404,393.060303 
	C715.162720,393.153412 715.069275,393.063782 715.133606,392.801788 
	C715.396301,392.270721 715.654175,392.083771 715.971497,391.978943 
	C715.971497,391.978943 716.069092,392.074615 716.116455,392.123871 
z"/>
<path fill="#EE9778" opacity="1.000000" stroke="none" 
	d="
M715.485657,581.875244 
	C712.969666,580.882202 710.453735,579.889160 707.592163,578.803650 
	C703.044006,577.205139 698.917297,575.420776 694.623291,574.250549 
	C685.408752,571.739502 677.943970,566.278931 670.719971,560.451599 
	C668.316223,558.512573 666.002869,556.020691 668.284302,552.315308 
	C668.664856,551.697205 668.490173,550.370361 668.064941,549.686157 
	C666.163513,546.626953 665.426208,543.717407 667.739441,540.451050 
	C668.188538,539.816895 667.274536,538.344543 667.322998,537.273926 
	C667.434082,534.820618 667.751221,532.376587 668.392578,529.862427 
	C668.800415,529.796021 669.030640,530.024841 668.982361,530.398804 
	C667.297058,534.419189 668.027100,537.131531 671.811890,538.983154 
	C673.079163,539.603149 674.000122,540.931274 675.039551,541.971558 
	C674.999817,542.007446 674.930664,542.086426 674.549072,542.066528 
	C672.746155,541.730408 671.324890,541.414124 669.978516,541.114502 
	C667.215515,545.618164 667.855835,547.658752 672.671326,550.823669 
	C677.336365,553.889648 681.946350,557.039429 687.373718,560.685242 
	C684.706360,560.685242 683.026489,560.685242 681.376282,560.685242 
	C680.864258,566.072937 680.994080,566.763428 685.401245,568.629761 
	C691.626404,571.265991 697.972473,573.642212 704.361328,575.856873 
	C708.196899,577.186584 712.212402,577.997192 716.161743,579.342407 
	C715.946228,580.387512 715.715942,581.131409 715.485657,581.875244 
z"/>
<path fill="#EE9778" opacity="1.000000" stroke="none" 
	d="
M667.656006,521.298767 
	C662.075195,518.108887 656.433105,515.018127 650.968323,511.640503 
	C649.951416,511.011993 648.982178,509.095490 649.200623,508.018921 
	C649.420349,506.936371 651.170837,505.368500 652.212830,505.396820 
	C655.436462,505.484528 658.830261,505.731659 661.805847,506.852142 
	C665.309631,508.171478 668.444946,510.469421 671.875793,512.666504 
	C672.011597,512.989868 671.981323,513.028992 671.606873,513.017029 
	C669.385559,512.431702 667.538757,511.858337 665.709656,511.290466 
	C662.044189,515.508728 662.102539,516.007812 666.383301,519.220581 
	C667.012817,519.692993 667.471863,520.392517 667.922607,521.066345 
	C667.835327,521.145691 667.656006,521.298767 667.656006,521.298767 
z"/>
<path fill="#E3D4CB" opacity="1.000000" stroke="none" 
	d="
M707.021179,508.474335 
	C711.955505,507.473572 713.673035,503.871094 715.234253,499.839874 
	C716.909668,495.513977 716.991394,490.103088 722.785583,488.425323 
	C718.947144,500.155731 714.779236,511.528778 710.289612,522.873779 
	C708.590271,522.318359 707.212708,521.790955 705.835083,521.263611 
	C706.225708,517.154358 706.616333,513.045105 707.021179,508.474335 
z"/>
<path fill="#523532" opacity="1.000000" stroke="none" 
	d="
M707.070435,704.478149 
	C712.969543,709.313965 718.795898,714.611267 724.622192,719.908569 
	C724.468628,720.257507 724.315002,720.606445 724.161377,720.955444 
	C721.751831,719.780029 719.216736,718.802490 716.966614,717.375610 
	C714.536377,715.834412 712.372559,713.873108 709.776611,711.848694 
	C709.087708,715.249512 708.530212,718.001709 707.609985,720.863403 
	C707.164062,715.628601 707.080811,710.284119 707.070435,704.478149 
z"/>
<path fill="#EE9778" opacity="1.000000" stroke="none" 
	d="
M676.735596,378.739380 
	C677.361694,378.297729 677.987732,377.856079 678.893982,377.216766 
	C677.268616,376.236084 675.832153,375.369415 674.206970,374.236389 
	C674.018188,373.970032 674.031189,373.954712 674.415039,373.978912 
	C682.478699,376.000580 689.195068,379.826172 695.356750,384.980682 
	C693.380005,385.394958 691.641785,385.127594 690.049561,384.493622 
	C685.671387,382.750427 681.354370,380.853546 676.943726,378.947968 
	C676.874329,378.878479 676.735596,378.739380 676.735596,378.739380 
z"/>
<path fill="#EE9778" opacity="1.000000" stroke="none" 
	d="
M680.237793,516.729858 
	C682.953735,518.114746 685.573853,519.769653 688.422241,520.781677 
	C690.088989,521.373901 692.120239,520.940369 694.411194,520.899414 
	C694.834900,520.830566 695.014160,521.011169 694.988770,521.332886 
	C695.754272,522.754944 696.306335,524.333984 697.379211,524.869202 
	C701.170959,526.760986 705.140869,528.295410 709.022095,529.984131 
	C709.000916,530.002869 708.964172,530.045959 708.565430,530.039062 
	C705.655640,529.347107 702.956665,529.041199 700.668762,527.906372 
	C693.691589,524.445801 686.872803,520.665894 680.053467,516.939880 
	C680.114502,516.869507 680.237793,516.729858 680.237793,516.729858 
z"/>
<path fill="#EE9778" opacity="1.000000" stroke="none" 
	d="
M705.490112,521.175171 
	C707.212708,521.790955 708.590271,522.318359 710.525879,523.159912 
	C712.004883,523.643738 712.925903,523.813416 713.992676,524.282410 
	C715.451172,525.704163 716.763794,526.826599 717.688965,527.964722 
	C715.799622,527.399353 714.303894,526.801880 712.794922,526.240112 
	C707.202271,524.158142 701.605286,522.087952 695.946045,519.950073 
	C695.882141,519.886841 695.754517,519.760193 695.754517,519.760193 
	C699.440063,516.271362 702.023499,520.583801 705.490112,521.175171 
z"/>
<path fill="#EE9778" opacity="1.000000" stroke="none" 
	d="
M669.643860,528.638184 
	C670.887817,528.203735 672.131775,527.769348 673.687866,527.168091 
	C673.999939,527.001221 673.976868,526.983398 674.030212,527.314453 
	C674.725464,527.427917 675.367432,527.210388 676.012085,526.984558 
	C676.014893,526.976257 676.026917,526.963013 676.354553,527.006775 
	C677.655884,527.746826 678.629639,528.443176 679.603333,529.139465 
	C679.446106,529.592834 679.288818,530.046143 679.131592,530.499512 
	C676.092224,530.005371 673.052917,529.511230 669.921082,528.922424 
	C669.828613,528.827759 669.643860,528.638184 669.643860,528.638184 
z"/>
<path fill="#EE9778" opacity="1.000000" stroke="none" 
	d="
M681.581299,391.355347 
	C676.817200,389.214478 673.956787,385.977386 675.554688,380.106018 
	C675.864685,379.860565 676.021301,380.016205 676.019531,380.412170 
	C675.048462,385.951721 680.203613,387.474182 681.915405,391.066315 
	C681.805908,391.164795 681.581299,391.355347 681.581299,391.355347 
z"/>
<path fill="#EE9778" opacity="1.000000" stroke="none" 
	d="
M672.776672,362.780792 
	C674.554138,361.532043 676.331543,360.283295 678.415527,358.862305 
	C678.722107,358.690094 678.867737,358.854980 678.941345,359.304352 
	C679.690430,361.488495 680.365967,363.223236 681.022949,364.977631 
	C681.004395,364.997253 680.972412,365.038757 680.591736,365.027649 
	C677.812500,364.351562 675.413879,363.686646 672.955933,362.961182 
	C672.896545,362.900696 672.776672,362.780792 672.776672,362.780792 
z"/>
<path fill="#EE9778" opacity="1.000000" stroke="none" 
	d="
M672.003052,371.998169 
	C669.423584,369.577728 668.683228,366.943085 671.445923,363.884338 
	C671.826721,363.823853 672.015320,364.012390 671.972473,364.380737 
	C671.966980,367.156372 672.004395,369.563721 672.032043,371.977844 
	C672.022278,371.984619 672.003052,371.998169 672.003052,371.998169 
z"/>
<path fill="#EE9778" opacity="1.000000" stroke="none" 
	d="
M695.697754,403.363037 
	C693.716309,401.967926 691.841003,400.445496 689.911377,398.532623 
	C689.857056,398.142151 690.028992,397.963623 690.365417,398.003784 
	C692.473877,399.690094 694.245850,401.336243 696.017883,402.982391 
	C696.017883,402.982391 695.803894,403.235718 695.697754,403.363037 
z"/>
<path fill="#EE9778" opacity="1.000000" stroke="none" 
	d="
M686.562317,395.449738 
	C685.014099,394.270538 683.465881,393.091339 681.749512,391.633728 
	C681.581299,391.355347 681.805908,391.164795 682.248169,391.103088 
	C684.140503,392.346985 685.590637,393.652588 686.918945,395.079010 
	C686.797241,395.199829 686.562317,395.449738 686.562317,395.449738 
z"/>
<path fill="#EE9778" opacity="1.000000" stroke="none" 
	d="
M670.669495,523.290222 
	C669.769958,522.805847 668.870483,522.321472 667.813477,521.567932 
	C667.656006,521.298767 667.835327,521.145691 668.243164,521.093506 
	C669.436279,521.691284 670.221558,522.341248 670.923462,523.067139 
	C670.840210,523.143127 670.669495,523.290222 670.669495,523.290222 
z"/>
<path fill="#EE9778" opacity="1.000000" stroke="none" 
	d="
M674.010132,527.011597 
	C673.774963,526.517883 673.529602,526.013855 673.154846,525.241943 
	C673.025513,524.974060 673.040771,524.958435 673.355713,525.001160 
	C674.456116,525.683594 675.241516,526.323303 676.026917,526.963013 
	C676.026917,526.963013 676.014893,526.976257 675.671265,526.951233 
	C674.877441,526.945251 674.427124,526.964294 673.976868,526.983398 
	C673.976868,526.983398 673.999939,527.001221 674.010132,527.011597 
z"/>
<path fill="#EE9778" opacity="1.000000" stroke="none" 
	d="
M673.018311,524.981567 
	C672.332947,524.596802 671.654663,524.204407 670.822998,523.551147 
	C670.669495,523.290222 670.840210,523.143127 671.241455,523.108398 
	C672.108765,523.701965 672.574768,524.330200 673.040771,524.958435 
	C673.040771,524.958435 673.025513,524.974060 673.018311,524.981567 
z"/>
<path fill="#EE9778" opacity="1.000000" stroke="none" 
	d="
M676.210266,514.760925 
	C676.756836,514.937683 677.303345,515.114502 677.983521,515.579651 
	C678.117188,515.867981 677.993286,516.009766 677.696655,515.985046 
	C676.930847,515.643799 676.461792,515.327271 676.046692,514.947937 
	C676.100708,514.885193 676.210266,514.760925 676.210266,514.760925 
z"/>
<path fill="#EE9778" opacity="1.000000" stroke="none" 
	d="
M695.957642,412.047180 
	C695.598755,411.620758 695.239868,411.194336 694.827209,410.483521 
	C694.773376,410.199066 694.896667,410.093597 695.201294,410.207581 
	C695.680969,410.873383 695.856140,411.425140 696.011841,411.993408 
	C695.992432,412.009888 695.957642,412.047150 695.957642,412.047180 
z"/>
<path fill="#EE9778" opacity="1.000000" stroke="none" 
	d="
M678.177124,515.795410 
	C678.774353,515.916077 679.311768,516.109375 680.043457,516.516296 
	C680.237793,516.729858 680.114502,516.869507 679.756653,516.915833 
	C678.930298,516.644714 678.461792,516.327209 677.993286,516.009766 
	C677.993286,516.009766 678.117188,515.867981 678.177124,515.795410 
z"/>
<path fill="#EE9778" opacity="1.000000" stroke="none" 
	d="
M674.194763,513.773926 
	C674.741150,513.954895 675.287537,514.135864 676.022095,514.538940 
	C676.210266,514.760925 676.100708,514.885193 675.749573,514.923828 
	C674.929688,514.645508 674.460876,514.328430 674.042480,513.951782 
	C674.092834,513.892212 674.194763,513.773926 674.194763,513.773926 
z"/>
<path fill="#EE9778" opacity="1.000000" stroke="none" 
	d="
M672.028320,512.971619 
	C672.627930,513.077271 673.210754,513.201111 673.994141,513.549438 
	C674.194763,513.773926 674.092834,513.892212 673.745850,513.928101 
	C672.926331,513.652344 672.453796,513.340637 671.981323,513.028992 
	C671.981323,513.028992 672.011597,512.989868 672.028320,512.971619 
z"/>
<path fill="#EE9778" opacity="1.000000" stroke="none" 
	d="
M689.770752,398.231079 
	C689.387634,398.186096 689.129028,397.999298 688.875000,397.459534 
	C688.841370,397.159515 689.031250,396.969208 689.248474,397.078125 
	C689.737244,397.385132 689.924988,397.643982 690.028992,397.963623 
	C690.028992,397.963623 689.857056,398.142151 689.770752,398.231079 
z"/>
<path fill="#EE9778" opacity="1.000000" stroke="none" 
	d="
M687.609680,396.394470 
	C687.302368,396.278015 687.044434,396.092865 686.699097,395.644409 
	C686.562317,395.449738 686.797241,395.199829 687.135132,395.191406 
	C687.744507,395.382141 687.933228,395.641602 687.931213,396.069092 
	C687.823303,396.176819 687.609680,396.394470 687.609680,396.394470 
z"/>
<path fill="#EE9778" opacity="1.000000" stroke="none" 
	d="
M671.733276,363.728821 
	C671.806396,363.345520 672.034973,363.120026 672.551025,362.869080 
	C672.776672,362.780792 672.896545,362.900696 672.848572,363.179565 
	C672.599060,363.728424 672.337280,363.913055 672.015320,364.012390 
	C672.015320,364.012390 671.826721,363.823853 671.733276,363.728821 
z"/>
<path fill="#EE9778" opacity="1.000000" stroke="none" 
	d="
M688.747192,397.255432 
	C688.361267,397.211151 688.107117,397.020721 687.750122,396.587280 
	C687.609680,396.394470 687.823303,396.176819 688.147827,396.181030 
	C688.743591,396.385986 688.929871,396.647308 689.031250,396.969208 
	C689.031250,396.969208 688.841370,397.159515 688.747192,397.255432 
z"/>
<path fill="#EE9778" opacity="1.000000" stroke="none" 
	d="
M694.745850,520.739624 
	C694.823181,520.367126 695.044983,520.139465 695.538330,519.863037 
	C695.754517,519.760193 695.882141,519.886841 695.838074,520.168335 
	C695.595459,520.722168 695.335510,520.909302 695.014160,521.011169 
	C695.014160,521.011169 694.834900,520.830566 694.745850,520.739624 
z"/>
<path fill="#EE9778" opacity="1.000000" stroke="none" 
	d="
M699.008301,414.988281 
	C698.706970,414.844360 698.412170,414.691132 698.046997,414.279541 
	C697.976624,414.021210 698.019470,413.980743 698.234619,414.090668 
	C698.720398,414.394470 698.913208,414.647614 699.028259,414.960022 
	C699.028259,414.960022 699.014893,414.978973 699.008301,414.988281 
z"/>
<path fill="#EE9778" opacity="1.000000" stroke="none" 
	d="
M697.954651,414.040833 
	C697.652893,413.887695 697.373169,413.714935 697.034729,413.281921 
	C696.976074,413.021667 697.018982,412.981079 697.235229,413.092834 
	C697.721069,413.404541 697.910400,413.663269 698.019470,413.980743 
	C698.019470,413.980743 697.976624,414.021210 697.954651,414.040833 
z"/>
<path fill="#EE9778" opacity="1.000000" stroke="none" 
	d="
M675.786499,379.782593 
	C675.837097,379.399292 676.036865,379.151123 676.521606,378.849731 
	C676.735596,378.739380 676.874329,378.878479 676.838867,379.168030 
	C676.606079,379.732544 676.345398,379.918762 676.021301,380.016205 
	C676.021301,380.016205 675.864685,379.860565 675.786499,379.782593 
z"/>
<path fill="#EE9778" opacity="1.000000" stroke="none" 
	d="
M674.029663,373.963989 
	C673.756897,373.795074 673.472595,373.632233 673.098389,373.230408 
	C673.008545,372.991394 673.025818,372.974091 673.238831,373.086365 
	C673.718262,373.394531 673.911377,373.646545 674.031189,373.954712 
	C674.031189,373.954712 674.018188,373.970032 674.029663,373.963989 
z"/>
<path fill="#EE9778" opacity="1.000000" stroke="none" 
	d="
M672.999146,372.999786 
	C672.717285,372.828644 672.444763,372.649109 672.087646,372.233887 
	C672.003052,371.998169 672.022278,371.984619 672.242432,372.094849 
	C672.725037,372.406708 672.912781,372.663025 673.025818,372.974091 
	C673.025818,372.974091 673.008545,372.991394 672.999146,372.999786 
z"/>
<path fill="#EE9778" opacity="1.000000" stroke="none" 
	d="
M696.954041,413.041321 
	C696.655945,412.884308 696.379883,412.707672 696.030762,412.289093 
	C695.957642,412.047150 695.992432,412.009888 696.225464,412.107422 
	C696.724548,412.406372 696.911377,412.665070 697.018982,412.981079 
	C697.018982,412.981079 696.976074,413.021667 696.954041,413.041321 
z"/>
<path fill="#EE9778" opacity="1.000000" stroke="none" 
	d="
M668.690247,529.676880 
	C668.748169,529.282776 668.965881,529.055420 669.438538,528.756836 
	C669.643860,528.638184 669.828613,528.827759 669.817017,529.142334 
	C669.608337,529.729675 669.350098,529.919006 669.030640,530.024841 
	C669.030640,530.024841 668.800415,529.796021 668.690247,529.676880 
z"/>
<path fill="#E3D4CB" opacity="1.000000" stroke="none" 
	d="
M832.026611,232.348343 
	C851.424744,230.544022 868.238403,237.470383 884.392944,246.312042 
	C900.503357,255.129532 914.681030,266.612671 927.304443,279.908417 
	C934.280762,287.256348 939.696289,295.566589 938.975586,306.427643 
	C938.933350,307.064301 938.733582,307.690491 938.482666,308.943237 
	C937.800232,308.115356 937.164368,307.704681 937.156433,307.282196 
	C936.882324,292.632294 928.098999,282.709381 918.036926,273.790375 
	C910.869690,267.437378 903.314880,261.424133 895.416748,256.012878 
	C877.126709,243.481857 857.581055,234.036407 834.691528,233.927948 
	C833.688660,233.923187 832.690002,233.041336 832.026611,232.348343 
z"/>
<path fill="#E3D4CB" opacity="1.000000" stroke="none" 
	d="
M827.239746,212.963715 
	C831.554260,212.744415 835.462463,212.573456 839.370667,212.402481 
	C839.408508,213.078629 839.446350,213.754761 839.484192,214.430893 
	C833.828552,214.957245 828.172852,215.483582 822.517151,216.009933 
	C822.373840,215.839447 822.230530,215.668961 822.087219,215.498474 
	C823.669312,214.669678 825.251404,213.840866 827.239746,212.963715 
z"/>
<path fill="#E3D4CB" opacity="1.000000" stroke="none" 
	d="
M818.003113,197.997864 
	C818.600464,198.677063 819.194702,199.358612 819.788940,200.040161 
	C819.501770,200.234726 819.214539,200.429291 818.927368,200.623840 
	C818.615540,199.968384 818.303650,199.312927 817.992249,198.332245 
	C817.992676,198.007004 818.000000,198.000198 818.003113,197.997864 
z"/>
<path fill="#FCA784" opacity="1.000000" stroke="none" 
	d="
M760.006897,379.998108 
	C755.468994,371.595184 756.367676,353.429626 764.619202,347.502289 
	C775.052063,340.008057 775.157471,328.567444 779.878723,318.994202 
	C785.326782,307.947021 790.694397,297.195221 802.550232,291.085876 
	C806.469543,292.726288 810.080505,294.494720 813.803101,296.948578 
	C808.007080,315.357239 812.917480,343.291565 823.360229,349.178009 
	C824.103638,346.867462 824.818604,344.645142 825.500244,342.526672 
	C828.773499,343.710388 831.845032,344.516907 834.622620,345.909790 
	C837.495544,347.350555 840.083008,349.360626 842.981262,351.242401 
	C843.915405,342.556061 835.446350,337.582245 824.280273,340.758575 
	C826.721069,329.075226 829.044373,317.954346 831.367676,306.833435 
	C832.416260,306.976959 833.464844,307.120483 834.717773,307.500427 
	C835.846375,323.158356 841.661987,336.657776 851.768860,350.384125 
	C852.927246,344.849304 853.797485,340.691406 854.667664,336.533539 
	C858.138672,353.780640 861.818726,370.897430 876.683777,383.532898 
	C877.950806,390.791351 872.994751,397.131989 875.971497,403.877930 
	C873.658020,405.103546 871.189331,406.108002 869.062988,407.600250 
	C864.497009,410.804626 860.564514,415.468323 855.551758,417.364441 
	C844.788879,421.435547 833.534607,424.234680 822.415955,427.317902 
	C819.759094,428.054657 816.844849,427.863068 813.124512,428.060608 
	C809.066956,428.016785 805.921631,427.829529 802.802979,428.039368 
	C794.004639,428.631378 786.314209,425.959656 779.361816,420.683167 
	C777.865295,419.547394 776.023987,418.866089 774.262817,417.621582 
	C765.304871,407.534576 761.849060,395.890625 761.902649,382.937408 
	C761.906677,381.960266 760.667969,380.977997 760.006897,379.998108 
M788.228333,369.028687 
	C784.672668,370.916870 780.950073,372.744843 782.035095,377.820160 
	C782.268311,378.910767 783.138428,379.865234 783.715149,380.882385 
	C784.507202,380.067963 785.650696,379.388947 786.026306,378.414093 
	C787.203003,375.359985 788.090271,372.194336 789.361633,368.911652 
	C789.218628,368.913177 789.075562,368.914703 788.228333,369.028687 
M792.755005,403.040283 
	C802.846558,403.041382 809.350098,401.190857 813.021301,397.273773 
	C800.368164,398.382599 787.921265,398.465118 776.998291,388.872772 
	C778.189148,396.809845 784.478638,402.364471 792.755005,403.040283 
M821.179565,374.944611 
	C825.864319,372.793518 826.648682,368.621582 826.295837,364.202393 
	C826.204590,363.058685 824.412598,362.050781 823.401794,360.980530 
	C821.505310,363.639984 819.180664,366.104065 817.849670,369.021484 
	C816.811523,371.297028 816.385742,374.412964 821.179565,374.944611 
M785.705322,345.160828 
	C784.388794,344.342987 783.072205,343.525146 781.755676,342.707275 
	C780.199158,345.812927 778.326599,348.817657 777.282898,352.086945 
	C776.978577,353.040192 778.804749,355.133698 780.122375,355.932037 
	C780.698303,356.281006 783.083252,354.966156 783.543091,353.921295 
	C784.648193,351.409790 785.101074,348.611328 785.705322,345.160828 
M790.444336,327.046478 
	C792.187927,327.562408 793.904968,328.253357 795.685852,328.522766 
	C796.619995,328.664062 797.665833,328.066620 798.661194,327.802795 
	C798.374939,326.749359 798.387512,325.448120 797.753296,324.683105 
	C793.944153,320.088196 785.820618,320.077820 781.747192,324.452606 
	C784.365051,325.211975 787.031128,325.985321 790.444336,327.046478 
M793.394897,365.478088 
	C793.394897,365.478088 793.518127,365.401062 793.394897,365.478088 
M815.474548,396.615082 
	C815.474548,396.615082 815.382874,396.476746 815.474548,396.615082 
z"/>
<path fill="#F5E7DA" opacity="1.000000" stroke="none" 
	d="
M718.076477,527.949036 
	C716.763794,526.826599 715.451172,525.704163 714.136230,523.953247 
	C715.713257,519.699463 717.187500,516.023865 718.892029,512.458435 
	C723.559937,502.694824 728.324829,492.977570 733.051331,483.241974 
	C732.745239,495.343445 731.847473,507.468170 732.321960,519.538940 
	C732.695435,529.040710 737.304810,537.320251 743.556335,545.241882 
	C744.509094,543.611267 745.183167,542.457642 745.834290,541.343262 
	C751.454163,545.008850 757.010559,548.633118 762.566956,552.257324 
	C763.256592,551.814148 763.946228,551.371033 764.635864,550.927917 
	C753.526306,524.346069 750.373962,497.039154 756.284729,468.469421 
	C760.643555,466.621307 764.918701,465.850128 768.348389,463.718597 
	C771.986145,461.457672 775.023499,462.268555 778.543823,463.203583 
	C789.616638,466.144592 800.749329,468.434387 812.380554,467.299194 
	C816.654785,466.882019 820.449768,466.354065 823.133057,462.708618 
	C833.902100,471.340027 844.437439,479.686676 854.972717,488.033325 
	C855.174316,490.407654 855.375854,492.781982 855.114136,495.581787 
	C843.986206,497.978699 836.459656,505.255219 828.770386,511.917877 
	C820.305420,519.252808 813.753357,527.577087 812.523987,539.840759 
	C811.543640,549.620178 808.647949,559.452148 802.653931,568.145142 
	C801.214478,568.366943 800.049255,568.719055 799.031372,568.469727 
	C792.827209,566.950623 786.646667,565.331665 780.477539,563.674255 
	C774.256958,562.003113 768.060242,560.332153 761.944031,564.000244 
	C756.695068,561.844849 751.342041,561.353821 745.445801,562.647217 
	C740.763062,560.106384 736.490295,557.913208 732.234253,555.490845 
	C732.250977,555.261658 732.160767,554.809082 732.191895,554.627197 
	C732.222961,554.445312 732.097107,554.098389 732.011047,553.826904 
	C731.624512,553.345886 731.323975,553.136292 731.019165,552.961304 
	C731.014954,552.995911 731.083130,552.981873 731.062378,552.684204 
	C730.691345,551.929932 730.341064,551.473450 729.995422,551.008423 
	C730.000000,550.999878 729.981812,551.009033 729.925171,550.698853 
	C729.265686,549.899353 728.662720,549.410034 728.032227,548.946838 
	C728.004578,548.972961 728.080627,548.972717 728.105103,548.658447 
	C727.771606,547.874146 727.413635,547.404236 727.031921,546.963623 
	C727.008240,546.992920 727.081787,546.976196 727.086670,546.665344 
	C726.745544,545.881348 726.399536,545.408142 726.034668,544.968140 
	C726.015869,545.001404 726.085938,544.970947 726.098816,544.623901 
	C725.426636,543.160706 724.741577,542.044495 724.033691,540.957886 
	C724.010925,540.987488 724.085388,540.982056 724.094116,540.603760 
	C723.085449,538.126343 722.067932,536.027222 721.030640,533.957886 
	C721.010742,533.987732 721.082397,533.987915 721.089844,533.648804 
	C720.738037,532.524597 720.378906,531.739441 720.008179,530.977295 
	C719.996582,531.000366 720.048096,530.997986 720.021606,530.698364 
	C719.668518,529.919861 719.341919,529.441040 719.005493,528.980957 
	C718.995667,528.999756 719.037720,528.994690 718.942322,528.755188 
	C718.569641,528.323792 718.292297,528.131958 718.026367,527.963745 
	C718.037659,527.987488 718.076477,527.949036 718.076477,527.949036 
M780.608887,510.818085 
	C779.367188,510.481781 778.122192,509.851807 776.884399,509.865784 
	C773.563416,509.903320 771.317444,511.938904 771.592834,515.056824 
	C771.746155,516.792542 774.219116,519.815796 775.299072,519.670776 
	C777.647156,519.355347 780.044373,517.663269 781.843079,515.932617 
	C782.485046,515.314941 781.456665,512.961304 780.608887,510.818085 
z"/>
<path fill="#EDDCCD" opacity="1.000000" stroke="none" 
	d="
M802.996338,567.997559 
	C808.647949,559.452148 811.543640,549.620178 812.523987,539.840759 
	C813.753357,527.577087 820.305420,519.252808 828.770386,511.917877 
	C836.459656,505.255219 843.986206,497.978699 854.989380,495.973022 
	C855.712280,521.971741 855.079895,547.977600 844.111328,572.186523 
	C840.774475,579.551147 834.674194,585.663635 829.816528,592.709900 
	C825.461243,591.738342 821.074036,590.559204 816.813599,589.027405 
	C813.270691,587.753601 809.876831,586.065369 806.353455,583.979919 
	C807.463257,582.049316 808.636536,580.699402 809.009583,580.270264 
	C807.815063,576.702209 807.069275,573.882751 805.903564,571.249268 
	C805.343628,569.984253 803.990356,569.070374 802.996338,567.997559 
z"/>
<path fill="#523532" opacity="1.000000" stroke="none" 
	d="
M822.899292,462.423859 
	C820.449768,466.354065 816.654785,466.882019 812.380554,467.299194 
	C800.749329,468.434387 789.616638,466.144592 778.543823,463.203583 
	C775.023499,462.268555 771.986145,461.457672 768.348389,463.718597 
	C764.918701,465.850128 760.643555,466.621307 756.367676,468.073914 
	C756.506531,465.745697 757.018066,463.334534 758.169434,460.568665 
	C762.062561,459.646759 765.315796,459.079529 768.551636,458.515350 
	C771.458984,450.916656 774.190918,443.277466 777.303345,435.796570 
	C779.875427,429.614319 781.212891,429.130524 787.561279,431.334564 
	C798.050354,434.976196 808.900208,435.863037 819.887024,435.852142 
	C823.436035,436.710754 826.985046,437.569336 830.735779,439.049561 
	C828.258118,447.255371 825.578674,454.839630 822.899292,462.423859 
z"/>
<path fill="#913426" opacity="1.000000" stroke="none" 
	d="
M823.133057,462.708618 
	C825.578674,454.839630 828.258118,447.255371 831.007568,439.299591 
	C839.142334,439.358063 847.207031,439.788086 855.986755,440.256226 
	C855.986755,441.999084 855.986938,444.434204 855.986755,446.869324 
	C855.985779,459.262390 855.995850,471.655487 855.965149,484.048462 
	C855.962280,485.188477 855.699036,486.327850 855.264771,487.750427 
	C844.437439,479.686676 833.902100,471.340027 823.133057,462.708618 
z"/>
<path fill="#EE9778" opacity="1.000000" stroke="none" 
	d="
M819.687134,435.600891 
	C808.900208,435.863037 798.050354,434.976196 787.561279,431.334564 
	C781.212891,429.130524 779.875427,429.614319 777.303345,435.796570 
	C774.190918,443.277466 771.458984,450.916656 768.551636,458.515350 
	C765.315796,459.079529 762.062561,459.646759 758.383301,460.284241 
	C760.025208,453.419403 762.065308,446.475708 764.182373,439.555573 
	C764.662537,437.986084 765.409668,436.498169 766.305908,434.368439 
	C769.165771,428.501251 771.753662,423.238342 774.341553,417.975403 
	C776.023987,418.866089 777.865295,419.547394 779.361816,420.683167 
	C786.314209,425.959656 794.004639,428.631378 802.802979,428.039368 
	C805.921631,427.829529 809.066956,428.016785 812.683472,428.055939 
	C815.273621,430.509277 817.380371,432.929443 819.687134,435.600891 
z"/>
<path fill="#EE9778" opacity="1.000000" stroke="none" 
	d="
M876.341675,403.859039 
	C872.994751,397.131989 877.950806,390.791351 876.965332,383.730530 
	C880.239563,381.155640 883.528809,378.999268 886.816223,376.840118 
	C889.786682,374.889191 892.761780,372.901947 896.276672,375.739258 
	C899.709900,378.510681 899.968567,382.296692 898.006042,385.589752 
	C893.652588,392.894745 889.673828,400.880676 879.739685,402.233154 
	C878.677185,402.377808 877.718628,403.286072 876.341675,403.859039 
z"/>
<path fill="#523532" opacity="1.000000" stroke="none" 
	d="
M732.217590,555.720093 
	C736.490295,557.913208 740.763062,560.106384 745.022461,562.651184 
	C731.495850,566.277466 722.598511,576.590149 724.036011,588.719666 
	C724.589539,593.390564 727.699402,597.758484 729.788513,602.567566 
	C717.164978,600.484802 713.762695,595.802002 715.427917,582.351440 
	C715.715942,581.131409 715.946228,580.387512 716.234375,579.211914 
	C716.292236,578.780212 716.220825,578.490295 716.435791,578.301880 
	C716.729980,577.749512 716.809204,577.385620 717.047119,576.704956 
	C721.515076,570.023804 725.824341,563.659424 730.384766,557.197144 
	C730.843079,556.820679 731.050171,556.541992 731.266663,556.280945 
	C731.276062,556.298584 731.314270,556.310547 731.583130,556.228760 
	C731.973877,556.004700 732.095703,555.862366 732.217590,555.720093 
z"/>
<path fill="#E3D4CB" opacity="1.000000" stroke="none" 
	d="
M802.653931,568.145142 
	C803.990356,569.070374 805.343628,569.984253 805.903564,571.249268 
	C807.069275,573.882751 807.815063,576.702209 809.009583,580.270264 
	C808.636536,580.699402 807.463257,582.049316 806.145020,583.698364 
	C799.998718,580.831177 794.141541,577.342468 787.960754,574.577332 
	C779.646790,570.858032 771.083191,567.697021 762.285400,564.148315 
	C768.060242,560.332153 774.256958,562.003113 780.477539,563.674255 
	C786.646667,565.331665 792.827209,566.950623 799.031372,568.469727 
	C800.049255,568.719055 801.214478,568.366943 802.653931,568.145142 
z"/>
<path fill="#644542" opacity="1.000000" stroke="none" 
	d="
M736.550781,642.564697 
	C731.406372,644.464905 727.494812,642.739197 727.635620,638.438477 
	C727.709045,636.194458 729.376709,633.577148 731.110291,631.983398 
	C732.048157,631.121216 735.460510,631.355042 736.299316,632.338013 
	C737.714294,633.996033 738.261108,636.602051 738.583008,638.892273 
	C738.728760,639.929138 737.460144,641.164795 736.550781,642.564697 
z"/>
<path fill="#B14634" opacity="1.000000" stroke="none" 
	d="
M831.242065,306.506470 
	C829.044373,317.954346 826.721069,329.075226 824.280273,340.758575 
	C835.446350,337.582245 843.915405,342.556061 842.981262,351.242401 
	C840.083008,349.360626 837.495544,347.350555 834.622620,345.909790 
	C831.845032,344.516907 828.773499,343.710388 825.500244,342.526672 
	C824.818604,344.645142 824.103638,346.867462 823.360229,349.178009 
	C812.917480,343.291565 808.007080,315.357239 813.967773,297.244568 
	C819.719238,299.963196 825.417847,303.071350 831.242065,306.506470 
z"/>
<path fill="#644542" opacity="1.000000" stroke="none" 
	d="
M733.007935,482.895020 
	C728.324829,492.977570 723.559937,502.694824 718.892029,512.458435 
	C717.187500,516.023865 715.713257,519.699463 713.990356,523.653931 
	C712.925903,523.813416 712.004883,523.643738 710.847656,523.187988 
	C714.779236,511.528778 718.947144,500.155731 723.147827,488.400970 
	C724.532227,484.319916 726.275452,480.708405 727.130432,476.897644 
	C728.070557,472.707611 730.175903,470.157166 734.652954,469.120056 
	C734.317810,473.525452 733.641174,478.036743 733.007935,482.895020 
z"/>
<path fill="#913426" opacity="1.000000" stroke="none" 
	d="
M774.262817,417.621582 
	C771.753662,423.238342 769.165771,428.501251 766.310913,434.003906 
	C768.948975,421.810089 763.938599,410.485657 760.917725,398.930298 
	C759.338257,392.888580 758.309753,386.980591 760.007812,380.423950 
	C760.667969,380.977997 761.906677,381.960266 761.902649,382.937408 
	C761.849060,395.890625 765.304871,407.534576 774.262817,417.621582 
z"/>
<path fill="#FCA784" opacity="1.000000" stroke="none" 
	d="
M673.238831,373.086365 
	C672.912781,372.663025 672.725037,372.406708 672.252197,372.088074 
	C672.004395,369.563721 671.966980,367.156372 671.972473,364.380737 
	C672.337280,363.913055 672.599060,363.728424 672.907959,363.240082 
	C675.413879,363.686646 677.812500,364.351562 680.761292,365.266724 
	C681.858459,365.694000 682.405334,365.871033 683.125610,366.286865 
	C683.850525,366.699554 684.402039,366.873444 685.166931,367.301605 
	C686.236389,367.721680 687.092529,367.887512 688.115295,368.352661 
	C689.510315,369.116730 690.738770,369.581482 692.140015,370.283447 
	C692.862427,370.693115 693.411926,370.865570 694.177368,371.310303 
	C698.236206,373.420929 702.079163,375.259247 706.008301,377.231384 
	C706.203003,377.402130 706.311584,377.438995 706.420166,377.475830 
	C706.315674,377.288391 706.211243,377.100952 706.048462,376.564606 
	C703.665283,370.678040 698.887329,370.726105 693.858765,370.721863 
	C693.143921,370.304138 692.597229,370.126404 691.881714,369.650391 
	C690.484985,368.887085 689.257019,368.422058 687.816528,367.703674 
	C686.746643,367.285187 685.889282,367.120117 684.860657,366.714935 
	C684.136597,366.301849 683.583862,366.128876 682.859497,365.717773 
	C682.139038,365.305756 681.590271,365.131866 681.041443,364.958008 
	C680.365967,363.223236 679.690430,361.488495 679.015869,359.385284 
	C690.072388,360.678314 701.127991,362.339783 712.582520,364.013184 
	C713.648438,366.877167 714.559021,369.698425 714.924988,372.588623 
	C715.465271,376.855438 714.156372,379.852875 708.403809,379.907410 
	C710.059753,381.184387 711.715698,382.461334 713.682678,383.872131 
	C714.092834,384.330444 714.279785,384.592285 714.774658,384.898315 
	C715.091858,385.328552 715.275330,385.591705 715.762695,385.904602 
	C715.982117,387.718933 715.984070,389.423279 715.978760,391.553284 
	C715.654175,392.083771 715.396301,392.270721 715.088379,392.755432 
	C712.992737,392.971069 711.006592,392.971069 708.090820,392.971069 
	C711.663452,396.104919 713.796570,399.060669 710.610657,402.858124 
	C707.275208,406.833832 703.757568,406.925110 696.346924,403.128540 
	C694.245850,401.336243 692.473877,399.690094 690.365417,398.003784 
	C689.924988,397.643982 689.737244,397.385132 689.248474,397.078125 
	C688.929871,396.647308 688.743591,396.385986 688.255737,396.073303 
	C687.933228,395.641602 687.744507,395.382141 687.256836,395.070557 
	C685.590637,393.652588 684.140503,392.346985 682.357666,391.004639 
	C680.203613,387.474182 675.048462,385.951721 676.019531,380.412170 
	C676.345398,379.918762 676.606079,379.732544 676.908203,379.237488 
	C681.354370,380.853546 685.671387,382.750427 690.049561,384.493622 
	C691.641785,385.127594 693.380005,385.394958 695.356750,384.980682 
	C689.195068,379.826172 682.478699,376.000580 674.415039,373.978912 
	C673.911377,373.646545 673.718262,373.394531 673.238831,373.086365 
M699.649963,389.828339 
	C700.564941,390.079376 701.479919,390.330414 702.394958,390.581451 
	C702.506653,390.322205 702.618347,390.062988 702.730042,389.803741 
	C701.367310,388.709991 700.004578,387.616211 698.641785,386.522430 
	C698.427979,386.707428 698.214172,386.892426 698.000305,387.077454 
	C698.363586,387.870087 698.726929,388.662750 699.649963,389.828339 
M704.479309,391.609192 
	C704.479309,391.609192 704.393005,391.477356 704.479309,391.609192 
M706.607544,392.521332 
	C706.607544,392.521332 706.474426,392.603577 706.607544,392.521332 
z"/>
<path fill="#FCA784" opacity="1.000000" stroke="none" 
	d="
M697.235229,413.092834 
	C696.911377,412.665070 696.724548,412.406372 696.244873,412.090942 
	C695.856140,411.425140 695.680969,410.873383 695.262695,410.154663 
	C695.559814,407.050140 696.951416,405.705292 700.125061,406.863129 
	C703.138611,407.962524 706.255676,408.778259 709.661133,409.860840 
	C709.827393,417.023834 709.087036,417.386444 699.411255,414.979645 
	C698.913208,414.647614 698.720398,414.394470 698.234619,414.090668 
	C697.910400,413.663269 697.721069,413.404541 697.235229,413.092834 
z"/>
<path fill="#FCA784" opacity="1.000000" stroke="none" 
	d="
M716.220825,578.490295 
	C716.220825,578.490295 716.292236,578.780212 716.219604,578.910645 
	C712.212402,577.997192 708.196899,577.186584 704.361328,575.856873 
	C697.972473,573.642212 691.626404,571.265991 685.401245,568.629761 
	C680.994080,566.763428 680.864258,566.072937 681.376282,560.685242 
	C683.026489,560.685242 684.706360,560.685242 687.373718,560.685242 
	C681.946350,557.039429 677.336365,553.889648 672.671326,550.823669 
	C667.855835,547.658752 667.215515,545.618164 669.978516,541.114502 
	C671.324890,541.414124 672.746155,541.730408 674.668945,542.271729 
	C675.375305,542.749634 675.629028,542.935791 676.093872,543.339172 
	C677.169434,544.088074 678.083008,544.553162 678.996521,545.018188 
	C679.152710,544.604797 679.308960,544.191406 679.465149,543.778015 
	C678.330017,543.493896 677.194946,543.209717 675.944702,542.717651 
	C675.629089,542.253479 675.379028,542.062134 675.079346,541.935669 
	C674.000122,540.931274 673.079163,539.603149 671.811890,538.983154 
	C668.027100,537.131531 667.297058,534.419189 668.982361,530.398804 
	C669.350098,529.919006 669.608337,529.729675 669.909546,529.237000 
	C673.052917,529.511230 676.092224,530.005371 679.131592,530.499512 
	C679.288818,530.046143 679.446106,529.592834 679.603333,529.139465 
	C678.629639,528.443176 677.655884,527.746826 676.354553,527.006775 
	C675.241516,526.323303 674.456116,525.683594 673.355713,525.001160 
	C672.574768,524.330200 672.108765,523.701965 671.324707,523.032471 
	C670.221558,522.341248 669.436279,521.691284 668.330444,521.014160 
	C667.471863,520.392517 667.012817,519.692993 666.383301,519.220581 
	C662.102539,516.007812 662.044189,515.508728 665.709656,511.290466 
	C667.538757,511.858337 669.385559,512.431702 671.606873,513.017029 
	C672.453796,513.340637 672.926331,513.652344 673.695435,513.987671 
	C674.460876,514.328430 674.929688,514.645508 675.695557,514.986572 
	C676.461792,515.327271 676.930847,515.643799 677.696655,515.985046 
	C678.461792,516.327209 678.930298,516.644714 679.695557,516.986206 
	C686.872803,520.665894 693.691589,524.445801 700.668762,527.906372 
	C702.956665,529.041199 705.655640,529.347107 708.679626,530.253418 
	C709.396240,530.742432 709.658508,530.926453 710.041748,531.164185 
	C710.196045,531.347107 710.288086,531.392761 710.380188,531.438354 
	C710.262756,531.284729 710.145325,531.131165 709.922363,530.757935 
	C709.616516,530.269714 709.358643,530.078674 709.043274,529.965332 
	C705.140869,528.295410 701.170959,526.760986 697.379211,524.869202 
	C696.306335,524.333984 695.754272,522.754944 694.988770,521.332886 
	C695.335510,520.909302 695.595459,520.722168 695.901978,520.231567 
	C701.605286,522.087952 707.202271,524.158142 712.794922,526.240112 
	C714.303894,526.801880 715.799622,527.399353 717.688965,527.964722 
	C718.076477,527.949036 718.037659,527.987488 718.127563,528.199219 
	C718.490906,528.605530 718.764282,528.800110 719.037720,528.994690 
	C719.037720,528.994690 718.995667,528.999756 719.023315,529.287354 
	C719.383362,530.049377 719.715698,530.523682 720.048096,530.997986 
	C720.048096,530.997986 719.996582,531.000366 720.007446,531.324829 
	C720.373047,532.428772 720.727722,533.208374 721.082397,533.987915 
	C721.082397,533.987915 721.010742,533.987732 721.019775,534.332520 
	C722.047729,536.778931 723.066528,538.880493 724.085388,540.982056 
	C724.085388,540.982056 724.010925,540.987488 724.018921,541.315918 
	C724.713318,542.753235 725.399658,543.862122 726.085938,544.970947 
	C726.085938,544.970947 726.015869,545.001404 726.039795,545.278687 
	C726.403076,546.029358 726.742432,546.502808 727.081787,546.976196 
	C727.081787,546.976196 727.008240,546.992920 727.035095,547.273804 
	C727.401489,548.027405 727.741089,548.500061 728.080627,548.972717 
	C728.080627,548.972717 728.004578,548.972961 728.051880,549.273804 
	C728.726746,550.052734 729.354248,550.530884 729.981812,551.009033 
	C729.981812,551.009033 730.000000,550.999878 730.026367,551.308350 
	C730.396240,552.071838 730.739685,552.526855 731.083130,552.981873 
	C731.083130,552.981873 731.014954,552.995911 731.130859,553.210205 
	C731.530273,553.649109 731.813660,553.873718 732.097107,554.098389 
	C732.097107,554.098389 732.222961,554.445312 731.948242,554.818481 
	C731.553772,555.564636 731.434021,555.937561 731.314270,556.310547 
	C731.314270,556.310547 731.276062,556.298584 730.981934,556.322266 
	C730.502991,556.662354 730.318298,556.978638 730.133545,557.294983 
	C725.824341,563.659424 721.515076,570.023804 716.826477,576.887451 
	C716.371704,577.754639 716.296265,578.122437 716.220825,578.490295 
z"/>
<path fill="#FEF8F3" opacity="1.000000" stroke="none" 
	d="
M674.030212,527.314453 
	C674.427124,526.964294 674.877441,526.945251 675.668518,526.959534 
	C675.367432,527.210388 674.725464,527.427917 674.030212,527.314453 
z"/>
<path fill="#EE9778" opacity="1.000000" stroke="none" 
	d="
M792.307129,403.038330 
	C784.478638,402.364471 778.189148,396.809845 776.998291,388.872772 
	C787.921265,398.465118 800.368164,398.382599 813.021301,397.273712 
	C809.350098,401.190857 802.846558,403.041382 792.307129,403.038330 
z"/>
<path fill="#523532" opacity="1.000000" stroke="none" 
	d="
M820.800293,374.997864 
	C816.385742,374.412964 816.811523,371.297028 817.849670,369.021484 
	C819.180664,366.104065 821.505310,363.639984 823.401794,360.980530 
	C824.412598,362.050781 826.204590,363.058685 826.295837,364.202393 
	C826.648682,368.621582 825.864319,372.793518 820.800293,374.997864 
z"/>
<path fill="#523532" opacity="1.000000" stroke="none" 
	d="
M785.761230,345.544739 
	C785.101074,348.611328 784.648193,351.409790 783.543091,353.921295 
	C783.083252,354.966156 780.698303,356.281006 780.122375,355.932037 
	C778.804749,355.133698 776.978577,353.040192 777.282898,352.086945 
	C778.326599,348.817657 780.199158,345.812927 781.755676,342.707275 
	C783.072205,343.525146 784.388794,344.342987 785.761230,345.544739 
z"/>
<path fill="#B14634" opacity="1.000000" stroke="none" 
	d="
M790.070801,326.902588 
	C787.031128,325.985321 784.365051,325.211975 781.747192,324.452606 
	C785.820618,320.077820 793.944153,320.088196 797.753296,324.683105 
	C798.387512,325.448120 798.374939,326.749359 798.661255,327.802795 
	C797.665833,328.066620 796.619995,328.664062 795.685852,328.522766 
	C793.904968,328.253357 792.187927,327.562408 790.070801,326.902588 
z"/>
<path fill="#EE9778" opacity="1.000000" stroke="none" 
	d="
M789.089661,369.071930 
	C788.090271,372.194336 787.203003,375.359985 786.026306,378.414093 
	C785.650696,379.388947 784.507202,380.067963 783.715149,380.882385 
	C783.138428,379.865234 782.268311,378.910767 782.035095,377.820160 
	C780.950073,372.744843 784.672668,370.916870 788.617554,369.013580 
	C789.006714,368.998474 789.089661,369.071930 789.089661,369.071930 
z"/>
<path fill="#EE9778" opacity="1.000000" stroke="none" 
	d="
M793.456543,365.439575 
	C793.518127,365.401062 793.394897,365.478088 793.456543,365.439575 
z"/>
<path fill="#EE9778" opacity="1.000000" stroke="none" 
	d="
M815.428711,396.545898 
	C815.382874,396.476746 815.474548,396.615082 815.428711,396.545898 
z"/>
<path fill="#EE9778" opacity="1.000000" stroke="none" 
	d="
M788.969604,368.957336 
	C789.075562,368.914703 789.218628,368.913177 789.225647,368.991791 
	C789.089661,369.071930 789.006714,368.998474 788.969604,368.957336 
z"/>
<path fill="#644542" opacity="1.000000" stroke="none" 
	d="
M780.899780,511.109039 
	C781.456665,512.961304 782.485046,515.314941 781.843079,515.932617 
	C780.044373,517.663269 777.647156,519.355347 775.299072,519.670776 
	C774.219116,519.815796 771.746155,516.792542 771.592834,515.056824 
	C771.317444,511.938904 773.563416,509.903320 776.884399,509.865784 
	C778.122192,509.851807 779.367188,510.481781 780.899780,511.109039 
z"/>
<path fill="#EE9778" opacity="1.000000" stroke="none" 
	d="
M724.094116,540.603760 
	C723.066528,538.880493 722.047729,536.778931 721.039673,534.302734 
	C722.067932,536.027222 723.085449,538.126343 724.094116,540.603760 
z"/>
<path fill="#EE9778" opacity="1.000000" stroke="none" 
	d="
M726.098816,544.623901 
	C725.399658,543.862122 724.713318,542.753235 724.041748,541.286377 
	C724.741577,542.044495 725.426636,543.160706 726.098816,544.623901 
z"/>
<path fill="#EE9778" opacity="1.000000" stroke="none" 
	d="
M729.925171,550.698853 
	C729.354248,550.530884 728.726746,550.052734 728.079468,549.247681 
	C728.662720,549.410034 729.265686,549.899353 729.925171,550.698853 
z"/>
<path fill="#EE9778" opacity="1.000000" stroke="none" 
	d="
M721.089844,533.648804 
	C720.727722,533.208374 720.373047,532.428772 720.019043,531.301758 
	C720.378906,531.739441 720.738037,532.524597 721.089844,533.648804 
z"/>
<path fill="#EE9778" opacity="1.000000" stroke="none" 
	d="
M731.062378,552.684204 
	C730.739685,552.526855 730.396240,552.071838 730.021851,551.316895 
	C730.341064,551.473450 730.691345,551.929932 731.062378,552.684204 
z"/>
<path fill="#EE9778" opacity="1.000000" stroke="none" 
	d="
M720.021606,530.698364 
	C719.715698,530.523682 719.383362,530.049377 719.033203,529.268555 
	C719.341919,529.441040 719.668518,529.919861 720.021606,530.698364 
z"/>
<path fill="#EE9778" opacity="1.000000" stroke="none" 
	d="
M728.105103,548.658447 
	C727.741089,548.500061 727.401489,548.027405 727.058777,547.244507 
	C727.413635,547.404236 727.771606,547.874146 728.105103,548.658447 
z"/>
<path fill="#EE9778" opacity="1.000000" stroke="none" 
	d="
M727.086670,546.665344 
	C726.742432,546.502808 726.403076,546.029358 726.058655,545.245422 
	C726.399536,545.408142 726.745544,545.881348 727.086670,546.665344 
z"/>
<path fill="#EE9778" opacity="1.000000" stroke="none" 
	d="
M732.011047,553.826904 
	C731.813660,553.873718 731.530273,553.649109 731.135132,553.175598 
	C731.323975,553.136292 731.624512,553.345886 732.011047,553.826904 
z"/>
<path fill="#EE9778" opacity="1.000000" stroke="none" 
	d="
M731.583130,556.228760 
	C731.434021,555.937561 731.553772,555.564636 731.917114,555.000366 
	C732.160767,554.809082 732.250977,555.261658 732.234253,555.490845 
	C732.095703,555.862366 731.973877,556.004700 731.583130,556.228760 
z"/>
<path fill="#EE9778" opacity="1.000000" stroke="none" 
	d="
M718.942322,528.755188 
	C718.764282,528.800110 718.490906,528.605530 718.116211,528.175537 
	C718.292297,528.131958 718.569641,528.323792 718.942322,528.755188 
z"/>
<path fill="#EE9778" opacity="1.000000" stroke="none" 
	d="
M730.384766,557.197144 
	C730.318298,556.978638 730.502991,556.662354 730.972534,556.304688 
	C731.050171,556.541992 730.843079,556.820679 730.384766,557.197144 
z"/>
<path fill="#EE9778" opacity="1.000000" stroke="none" 
	d="
M716.435791,578.301880 
	C716.296265,578.122437 716.371704,577.754639 716.667847,577.204224 
	C716.809204,577.385620 716.729980,577.749512 716.435791,578.301880 
z"/>
<path fill="#EE9778" opacity="1.000000" stroke="none" 
	d="
M694.026917,370.961914 
	C698.887329,370.726105 703.665283,370.678040 705.999817,376.608093 
	C706.009460,377.000519 705.922119,377.097565 705.922119,377.097534 
	C702.079163,375.259247 698.236206,373.420929 694.194824,371.292267 
	C693.996460,371.001923 694.026917,370.961914 694.026917,370.961914 
z"/>
<path fill="#EE9778" opacity="1.000000" stroke="none" 
	d="
M699.370117,389.641846 
	C698.726929,388.662750 698.363586,387.870087 698.000305,387.077454 
	C698.214172,386.892426 698.427979,386.707428 698.641785,386.522430 
	C700.004578,387.616211 701.367310,388.709991 702.730042,389.803741 
	C702.618347,390.062988 702.506653,390.322205 702.394958,390.581451 
	C701.479919,390.330414 700.564941,390.079376 699.370117,389.641846 
z"/>
<path fill="#EE9778" opacity="1.000000" stroke="none" 
	d="
M688.029114,367.957062 
	C689.257019,368.422058 690.484985,368.887085 691.859436,369.674164 
	C692.005981,369.996246 691.967163,370.046234 691.967163,370.046204 
	C690.738770,369.581482 689.510315,369.116730 688.136475,368.329468 
	C687.991028,368.006989 688.029114,367.957062 688.029114,367.957062 
z"/>
<path fill="#EE9778" opacity="1.000000" stroke="none" 
	d="
M687.969849,368.030151 
	C687.092529,367.887512 686.236389,367.721680 685.187866,367.279114 
	C684.995483,367.002350 685.031982,366.955048 685.031982,366.955048 
	C685.889282,367.120117 686.746643,367.285187 687.816528,367.703674 
	C688.029114,367.957062 687.991028,368.006989 687.969849,368.030151 
z"/>
<path fill="#EE9778" opacity="1.000000" stroke="none" 
	d="
M683.031128,365.955902 
	C683.583862,366.128876 684.136597,366.301849 684.860657,366.714935 
	C685.031982,366.955048 684.995483,367.002350 684.974548,367.024841 
	C684.402039,366.873444 683.850525,366.699554 683.146484,366.264832 
	C682.994080,366.003998 683.031128,365.955902 683.031128,365.955902 
z"/>
<path fill="#EE9778" opacity="1.000000" stroke="none" 
	d="
M693.979004,371.019958 
	C693.411926,370.865570 692.862427,370.693115 692.140015,370.283447 
	C691.967163,370.046234 692.005981,369.996246 692.028259,369.972473 
	C692.597229,370.126404 693.143921,370.304138 693.858765,370.721863 
	C694.026917,370.961914 693.996460,371.001923 693.979004,371.019958 
z"/>
<path fill="#EE9778" opacity="1.000000" stroke="none" 
	d="
M682.973145,366.026031 
	C682.405334,365.871033 681.858459,365.694000 681.141968,365.277863 
	C680.972412,365.038757 681.004395,364.997253 681.022949,364.977631 
	C681.590271,365.131866 682.139038,365.305756 682.859497,365.717773 
	C683.031128,365.955902 682.994080,366.003998 682.973145,366.026031 
z"/>
<path fill="#EE9778" opacity="1.000000" stroke="none" 
	d="
M706.058105,376.957031 
	C706.211243,377.100952 706.315674,377.288391 706.420166,377.475830 
	C706.311584,377.438995 706.203003,377.402130 706.008301,377.231415 
	C705.922119,377.097565 706.009460,377.000519 706.058105,376.957031 
z"/>
<path fill="#EE9778" opacity="1.000000" stroke="none" 
	d="
M704.436157,391.543274 
	C704.393005,391.477356 704.479309,391.609192 704.436157,391.543274 
z"/>
<path fill="#EE9778" opacity="1.000000" stroke="none" 
	d="
M706.541016,392.562439 
	C706.474426,392.603577 706.607544,392.521332 706.541016,392.562439 
z"/>
<path fill="#EE9778" opacity="1.000000" stroke="none" 
	d="
M676.059875,542.925598 
	C677.194946,543.209717 678.330017,543.493896 679.465149,543.778015 
	C679.308960,544.191406 679.152710,544.604797 678.996521,545.018188 
	C678.083008,544.553162 677.169434,544.088074 676.127808,543.308594 
	C675.999634,542.994202 676.059875,542.925598 676.059875,542.925598 
z"/>
<path fill="#EE9778" opacity="1.000000" stroke="none" 
	d="
M675.965698,543.024780 
	C675.629028,542.935791 675.375305,542.749634 675.050537,542.291626 
	C674.930664,542.086426 674.999817,542.007446 675.039551,541.971558 
	C675.379028,542.062134 675.629089,542.253479 675.944702,542.717651 
	C676.059875,542.925598 675.999634,542.994202 675.965698,543.024780 
z"/>
<path fill="#EE9778" opacity="1.000000" stroke="none" 
	d="
M709.022095,529.984131 
	C709.358643,530.078674 709.616516,530.269714 709.909058,530.769165 
	C710.001282,531.000000 709.979553,531.026855 709.979553,531.026855 
	C709.658508,530.926453 709.396240,530.742432 709.078369,530.260376 
	C708.964172,530.045959 709.000916,530.002869 709.022095,529.984131 
z"/>
<path fill="#EE9778" opacity="1.000000" stroke="none" 
	d="
M710.014526,530.988770 
	C710.145325,531.131165 710.262756,531.284729 710.380188,531.438354 
	C710.288086,531.392761 710.196045,531.347107 710.041748,531.164185 
	C709.979553,531.026855 710.001282,531.000000 710.014526,530.988770 
z"/>
</svg>
